<?xml version="1.0" encoding="utf-8"?>
<!DOCTYPE svg PUBLIC "-//W3C//DTD SVG 1.1//EN" "http://www.w3.org/Graphics/SVG/1.1/DTD/svg11.dtd">
<svg version="1.1" xmlns="http://www.w3.org/2000/svg" xmlns:xlink="http://www.w3.org/1999/xlink" x="0px" y="0px"
	 width="595.28px" height="841.89px" viewBox="0 0 595.28 841.89" enable-background="new 0 0 595.28 841.89" xml:space="preserve">
<g id="Calque_2">
	<rect y="198.89" opacity="0.2" fill-rule="evenodd" clip-rule="evenodd" width="606" height="309"/>
	<path display="none" fill-rule="evenodd" clip-rule="evenodd" fill="#4CB4BF" d="M161.351,293.787
		c9.417,4.461,18.354,8.767,27.37,12.904c1.822,0.836,2.453,1.804,2.375,3.784c-0.164,4.2-0.05,8.41-0.05,12.599
		c-1.051,0.33-1.725-0.311-2.443-0.647c-14.464-6.791-28.9-13.641-43.392-20.371c-1.73-0.804-2.326-1.738-2.231-3.602
		c0.161-3.192,0.112-6.401,0.013-9.598c-0.042-1.367,0.37-2.119,1.64-2.713c14.779-6.911,29.54-13.862,44.284-20.845
		c1.602-0.758,2.224-0.657,2.163,1.33c-0.115,3.702-0.134,7.414,0.012,11.114c0.068,1.712-0.525,2.528-2.056,3.216
		c-8.284,3.722-16.52,7.552-24.768,11.354C163.442,292.691,162.644,293.13,161.351,293.787z M189.574,267.035
		c-0.459-0.063-0.556-0.107-0.618-0.079c-14.398,6.745-28.791,13.503-43.197,20.231c-0.992,0.463-1.308,1.11-1.29,2.16
		c0.051,3.033,0.054,6.067-0.001,9.099c-0.021,1.146,0.327,1.825,1.425,2.338c14.024,6.557,28.034,13.144,42.023,19.773
		c1.508,0.714,1.695,0.153,1.673-1.172c-0.047-2.864-0.108-5.733,0.023-8.592c0.074-1.604-0.535-2.363-1.955-3.022
		c-9.006-4.18-17.968-8.453-26.939-12.705c-0.782-0.371-1.532-0.812-2.589-1.375c1.021-0.503,1.675-0.843,2.344-1.152
		c9.089-4.198,18.178-8.397,27.273-12.582c1.016-0.467,1.907-0.835,1.862-2.295C189.502,274.132,189.574,270.598,189.574,267.035z"
		/>
</g>
<g id="Calque_3">
	<path fill-rule="evenodd" clip-rule="evenodd" fill="#FCFCFC" d="M29.719,311.623c0,2.192-0.069,3.871,0.022,5.541
		c0.072,1.321-0.192,1.995-1.742,1.916c-2.437-0.125-4.887-0.105-7.326-0.004c-1.336,0.055-1.72-0.369-1.702-1.699
		c0.071-5.222,0.029-10.445,0.029-15.668c0-17.1,0.027-34.2-0.041-51.3c-0.007-1.792,0.282-2.583,2.291-2.396
		c2.171,0.203,4.383,0.152,6.564,0.011c1.596-0.104,1.954,0.442,1.939,1.979c-0.077,8.422-0.037,16.847-0.034,25.27
		c0,0.308,0.032,0.615,0.051,0.958c0.276-0.078,0.468-0.072,0.526-0.158c9.716-14.123,28.838-9.373,36.438,1.847
		c7.281,10.749,5.305,27.394-4.401,35.987c-8.977,7.947-21.039,7.979-30.055,0.072C31.538,313.327,30.825,312.642,29.719,311.623z
		 M29.525,293.384c-0.125,6.995,3.261,12.914,8.857,15.48c8.213,3.767,17.762-0.346,20.955-9.026
		c3.414-9.279-1.604-20.034-10.49-22.482C38.774,274.581,29.728,282.085,29.525,293.384z"/>
	<path fill-rule="evenodd" clip-rule="evenodd" fill="#FCFCFC" d="M106.07,298.268c-5.981,0-11.964,0.084-17.942-0.046
		c-2.061-0.045-2.204,0.72-1.714,2.346c1.738,5.772,6.116,8.587,11.569,9.646c6.473,1.256,12.607,0.215,17.541-4.665
		c0.908-0.897,1.296-0.546,1.919,0.18c1.096,1.278,2.125,2.665,3.421,3.709c1.977,1.592,1.193,2.531-0.345,3.811
		c-12.58,10.471-32.37,8.363-40.982-4.421c-6.918-10.269-5.31-26.213,3.468-34.397c9.507-8.862,24.502-9.535,34.792-1.536
		c4.933,3.834,7.536,8.965,8.012,15.134c0.22,2.85,0.038,5.728,0.167,8.587c0.062,1.358-0.399,1.694-1.709,1.681
		C118.201,298.231,112.135,298.267,106.07,298.268z M100.676,289.895c4.208,0,8.418-0.101,12.621,0.046
		c1.877,0.066,2.076-0.694,1.86-2.22c-0.883-6.218-4.907-9.979-11.916-11.059c-7.833-1.206-15.715,4.016-17.052,11.13
		c-0.349,1.856,0.234,2.159,1.865,2.129C92.26,289.844,96.469,289.896,100.676,289.895z"/>
</g>
<g id="Calque_4">
	<path fill-rule="evenodd" clip-rule="evenodd" fill="#091D2C" d="M189.574,267.035c0,3.563-0.072,7.098,0.035,10.626
		c0.044,1.459-0.847,1.828-1.862,2.295c-9.095,4.185-18.184,8.383-27.273,12.582c-0.669,0.309-1.324,0.649-2.344,1.152
		c1.057,0.564,1.807,1.004,2.589,1.375c8.972,4.252,17.934,8.525,26.939,12.705c1.42,0.659,2.029,1.418,1.955,3.022
		c-0.132,2.859-0.07,5.728-0.023,8.592c0.022,1.325-0.166,1.886-1.673,1.172c-13.99-6.629-28-13.216-42.023-19.773
		c-1.098-0.513-1.445-1.192-1.425-2.338c0.055-3.032,0.052-6.066,0.001-9.099c-0.018-1.05,0.298-1.696,1.29-2.16
		c14.407-6.728,28.799-13.486,43.197-20.231C189.018,266.927,189.115,266.972,189.574,267.035z"/>
	<path fill-rule="evenodd" clip-rule="evenodd" fill="#4CB4BF" d="M253.856,251.003c-1.762,3.756-3.351,7.153-4.949,10.546
		c-11.073,23.511-22.163,47.015-33.19,70.548c-0.709,1.516-1.524,2.085-3.222,2.037c-4.534-0.132-9.074-0.045-13.601-0.045
		c-0.23-1.183,0.438-1.93,0.818-2.732c12.35-26.072,24.735-52.127,37.056-78.212c0.747-1.581,1.594-2.242,3.395-2.186
		C244.599,251.095,249.041,251.003,253.856,251.003z M200.725,332.617c3.78,0,7.21-0.11,10.63,0.043
		c1.873,0.084,2.798-0.539,3.597-2.262c6.122-13.197,12.366-26.337,18.565-39.498c5.627-11.943,11.248-23.89,16.867-35.836
		c1.23-2.616,1.221-2.625-1.743-2.633c-2.442-0.007-4.895,0.137-7.323-0.045c-2.021-0.15-2.942,0.673-3.78,2.45
		c-10.828,22.972-21.744,45.902-32.632,68.846C203.547,326.547,202.217,329.426,200.725,332.617z"/>
	<path fill-rule="evenodd" clip-rule="evenodd" fill="#091D2C" d="M200.725,332.617c1.492-3.19,2.822-6.07,4.181-8.935
		c10.888-22.944,21.804-45.875,32.632-68.846c0.838-1.777,1.759-2.601,3.78-2.45c2.429,0.182,4.881,0.038,7.323,0.045
		c2.964,0.008,2.973,0.017,1.743,2.633c-5.619,11.947-11.24,23.893-16.867,35.836c-6.2,13.161-12.443,26.301-18.565,39.498
		c-0.799,1.723-1.724,2.347-3.597,2.262C207.936,332.506,204.505,332.617,200.725,332.617z"/>
</g>
<g id="Calque_5">
	<path fill-rule="evenodd" clip-rule="evenodd" fill="#53C2CC" d="M400.071,275.827c0-4.692,0-8.612,0-12.532
		c0-4.38,0.067-8.763-0.033-13.142c-0.039-1.667,0.484-2.265,2.151-2.112c2.817,0.257,6.432-1.154,8.252,0.603
		c1.597,1.542,0.439,5.125,0.444,7.804c0.032,19.882-0.033,39.764,0.08,59.645c0.015,2.523-0.729,3.229-3.114,2.991
		c-2.002-0.201-4.041-0.099-6.061-0.023c-1.323,0.049-1.801-0.456-1.737-1.763c0.081-1.649,0.02-3.305,0.02-5.692
		c-4.479,5.719-9.966,8.049-16.386,8.267c-12.46,0.423-23.425-9.399-24.695-22.018c-0.833-8.262,0.316-15.969,6.143-22.396
		c6.665-7.352,17.727-10.132,26.294-6.611C394.741,270.208,397.382,272.478,400.071,275.827z M369.529,293.741
		c-0.02,9.68,6.865,16.771,16.119,16.601c7.579-0.14,13.258-5.77,14.544-14.417c1.211-8.137-3.782-16.538-11.03-18.561
		C379.015,274.532,369.553,282.424,369.529,293.741z"/>
	<path fill-rule="evenodd" clip-rule="evenodd" fill="#53C2CC" d="M446.186,298.265c-5.981,0-11.963,0.049-17.943-0.03
		c-1.731-0.023-2.226,0.375-1.715,2.157c1.671,5.83,6.017,8.69,11.458,9.787c6.451,1.3,12.604,0.325,17.587-4.527
		c0.784-0.763,1.258-0.854,1.996,0.015c1.364,1.603,2.777,3.17,4.261,4.663c0.84,0.845,0.573,1.347-0.159,2.046
		c-10.892,10.409-34.234,11.488-43.343-5.921c-8.116-15.514-0.186-34.048,16.22-38.249c6.244-1.599,12.377-1.091,18.252,1.583
		c8.361,3.806,12.839,10.374,13.312,19.534c0.149,2.901,1.25,6.582-0.51,8.515c-1.427,1.569-5.109,0.377-7.79,0.416
		C453.936,298.307,450.061,298.265,446.186,298.265z M440.746,289.918c4.298,0,8.596-0.018,12.893,0.011
		c1.202,0.008,1.936-0.213,1.747-1.694c-0.529-4.17-2.238-7.607-6.059-9.637c-6.275-3.336-12.342-2.602-18.082,1.332
		c-2.434,1.667-4.044,3.984-4.677,6.949c-0.634,2.965-0.629,3.035,2.295,3.04C432.824,289.925,436.785,289.92,440.746,289.918z"/>
	<path fill-rule="evenodd" clip-rule="evenodd" fill="#53C2CC" d="M354.556,293.64c-0.011,14.951-11.563,26.263-26.804,26.246
		c-15.168-0.016-26.854-11.471-26.838-26.306c0.017-14.836,11.706-26.232,26.9-26.223
		C343.098,267.368,354.566,278.64,354.556,293.64z M343.846,293.578c-0.012-9.748-6.674-16.628-16.095-16.621
		c-9.428,0.007-16.032,6.887-16.021,16.689c0.011,9.766,6.672,16.656,16.092,16.645
		C337.189,310.281,343.859,303.325,343.846,293.578z"/>
	<path fill-rule="evenodd" clip-rule="evenodd" fill="#53C2CC" d="M282.29,267.352c3.469,0.011,9.53,2.076,14.766,6.534
		c1.214,1.034,1.442,1.778,0.264,3.012c-1.391,1.457-2.655,3.054-3.832,4.692c-0.885,1.232-1.479,1.316-2.747,0.324
		c-4.633-3.624-9.799-5.461-15.785-4.103c-7.955,1.806-12.91,8.293-12.567,16.547c0.318,7.647,6.325,14.288,13.873,15.467
		c5.773,0.901,10.689-0.921,14.823-4.778c1.526-1.424,2.213-1.071,3.288,0.274c1.154,1.444,2.463,2.767,3.74,4.11
		c0.603,0.633,0.871,1.138,0.083,1.871c-7.674,7.139-16.631,10.257-26.935,7.775c-9.876-2.379-16.57-8.611-18.887-18.639
		C248.244,282.564,260.56,267.4,282.29,267.352z"/>
</g>
<g id="Calque_6">
	<path fill-rule="evenodd" clip-rule="evenodd" fill="#091D2C" d="M510.752,293.563c-9.698-4.466-19.048-8.876-28.502-13.05
		c-2.298-1.014-3.141-2.228-2.937-4.702c0.24-2.907,0.057-5.849,0.057-8.743c1.041-0.254,1.641,0.312,2.297,0.62
		c13.559,6.365,27.098,12.771,40.679,19.085c1.602,0.745,2.268,1.616,2.162,3.409c-0.159,2.687-0.116,5.394-0.011,8.085
		c0.055,1.409-0.505,2.077-1.741,2.655c-13.797,6.452-27.576,12.939-41.33,19.479c-1.701,0.81-2.161,0.528-2.084-1.342
		c0.139-3.362-0.954-7.286,0.438-9.941c1.407-2.682,5.663-3.215,8.671-4.68c7.187-3.5,14.438-6.868,21.659-10.296
		C510.246,294.077,510.347,293.933,510.752,293.563z"/>
	<path fill-rule="evenodd" clip-rule="evenodd" fill="#4CB4BF" d="M507.674,293.718c-8.715-4.027-16.785-7.987-25.057-11.471
		c-3.562-1.5-5.417-3.228-4.792-7.333c0.413-2.716,0.128-5.547,0.06-8.324c-0.038-1.58,0.238-2.189,1.96-1.373
		c14.893,7.06,29.808,14.071,44.729,21.068c0.964,0.452,1.385,1.006,1.366,2.103c-0.06,3.704-0.063,7.411,0.002,11.115
		c0.02,1.09-0.362,1.666-1.331,2.12c-14.998,7.033-29.989,14.08-44.959,21.172c-1.586,0.752-1.796,0.221-1.771-1.243
		c0.065-3.873,0.106-7.749-0.019-11.619c-0.053-1.608,0.549-2.381,1.949-3.031c8.311-3.863,16.584-7.809,24.87-11.729
		C505.512,294.782,506.334,294.371,507.674,293.718z M510.752,293.563c-0.405,0.37-0.506,0.514-0.642,0.578
		c-7.222,3.428-14.473,6.797-21.659,10.296c-3.008,1.465-7.264,1.999-8.671,4.68c-1.393,2.655-0.3,6.58-0.438,9.941
		c-0.077,1.87,0.383,2.152,2.084,1.342c13.754-6.54,27.533-13.027,41.33-19.479c1.236-0.578,1.796-1.246,1.741-2.655
		c-0.105-2.692-0.148-5.398,0.011-8.085c0.105-1.793-0.561-2.665-2.162-3.409c-13.581-6.314-27.12-12.72-40.679-19.085
		c-0.656-0.308-1.256-0.874-2.297-0.62c0,2.895,0.184,5.836-0.057,8.743c-0.204,2.474,0.639,3.688,2.937,4.702
		C491.704,284.687,501.054,289.097,510.752,293.563z"/>
</g>
<g id="Calque_7">
	<path fill-rule="evenodd" clip-rule="evenodd" fill="#EFF0F1" d="M125.916,387.323c0.848-3.918,3.594-7.268,3.047-11.605
		c-0.057-0.451-0.339-1.005,0.431-1.197c0.973-0.242,1.125,0.45,1.301,1.106c0.785,2.917,1.541,5.841,2.351,8.751
		c0.267,0.96,0.666,1.884,1.176,3.302c1.378-3.792,1.897-7.325,2.743-10.768c0.14-0.57,0.261-1.146,0.385-1.721
		c0.109-0.502,0.188-1.018,0.913-0.914c0.815,0.116,0.893,0.657,0.728,1.293c-1.16,4.467-2.35,8.926-3.485,13.399
		c-0.209,0.821-0.762,0.738-1.345,0.775c-0.882,0.056-1.089-0.521-1.313-1.218c-0.858-2.664-1.771-5.31-2.819-8.426
		c-1.126,2.996-2.102,5.55-3.044,8.117c-0.294,0.802-0.454,1.601-1.626,1.542c-1.142-0.057-1.038-0.942-1.216-1.607
		c-1.085-4.053-2.146-8.112-3.186-12.177c-0.152-0.594-0.576-1.387,0.454-1.644c1.225-0.305,1.117,0.784,1.266,1.417
		c0.9,3.832,1.74,7.678,2.6,11.52C125.489,387.286,125.702,387.305,125.916,387.323z"/>
	<path fill-rule="evenodd" clip-rule="evenodd" fill="#EFF0F1" d="M173.035,382.02c-0.002-1.938,0.093-3.882-0.035-5.812
		c-0.088-1.336,0.503-1.867,1.671-1.952c1.339-0.097,2.699-0.258,4.023-0.125c1.646,0.165,3.189,0.821,3.698,2.592
		c0.502,1.746,0.547,3.566-0.862,4.974c-0.783,0.782-1.279,1.187-0.222,2.26c1.407,1.428,1.065,4.085,3.362,5.049
		c0.286,0.121-0.088,0.731-0.591,0.801c-0.993,0.137-1.832,0.003-2.283-1.074c-0.518-1.239-1.057-2.474-1.667-3.67
		c-0.757-1.485-3.345-2.323-4.808-1.695c-0.765,0.329-0.572,0.947-0.589,1.486c-0.039,1.263-0.013,2.527-0.02,3.792
		c-0.003,0.521-0.041,1.025-0.738,1.081c-0.855,0.067-0.941-0.49-0.94-1.134C173.038,386.401,173.036,384.21,173.035,382.02z
		 M176.886,381.872c3.124,0.008,4.16-0.855,4.124-3.254c-0.033-2.224-1.104-2.897-3.911-3.113c-2.425-0.186-2.602,1.104-2.376,2.876
		C174.922,379.938,173.69,382.504,176.886,381.872z"/>
	<path fill-rule="evenodd" clip-rule="evenodd" fill="#EFF0F1" d="M220.779,389.754c-2.185,0.656-2.661-0.576-2.534-2.925
		c0.195-3.595,0.071-7.208,0.038-10.813c-0.008-0.922,0.091-1.531,1.188-1.809c3.428-0.87,7.265,0.111,8.709,2.358
		c1.871,2.911,1.626,8.875-0.483,11.203C225.935,389.716,223.568,389.74,220.779,389.754z M219.899,382.013
		c0,1.594-0.012,3.188,0.009,4.782c0.005,0.401-0.019,0.915,0.204,1.179c0.945,1.121,6.336-0.068,6.901-1.534
		c0.997-2.586,1.041-5.27,0.315-7.905c-0.646-2.348-3.104-3.481-6.211-2.936c-2.506,0.44-0.785,2.437-1.167,3.662
		C219.687,380.101,219.899,381.09,219.899,382.013z"/>
	<path fill-rule="evenodd" clip-rule="evenodd" fill="#EFF0F1" d="M97.393,382.662c0.011-6.484,2.4-9.119,7.342-8.593
		c0.25,0.026,0.505,0.042,0.75,0.101c2.314,0.557,3.699,2.149,4.004,4.37c0.49,3.571,1.083,7.365-2.021,10.15
		c-1.902,1.706-4.415,1.673-6.674,0.721C97.602,388.067,97.47,385.077,97.393,382.662z M98.941,381.888
		c0.036,0.002,0.073,0.004,0.109,0.007c0,0.587-0.045,1.178,0.007,1.759c0.305,3.337,1.656,4.702,4.656,4.741
		c3.069,0.04,4.127-1.027,4.386-4.702c0.104-1.492,0.092-3.037-0.176-4.501c-0.482-2.643-1.864-3.497-4.593-3.658
		c-2.695-0.159-3.803,1.207-4.108,3.611C99.106,380.056,99.033,380.973,98.941,381.888z"/>
	<path fill-rule="evenodd" clip-rule="evenodd" fill="#EFF0F1" d="M196.273,380.94c0.171-1.858-0.964-4.795,0.4-6.19
		c1.49-1.524,4.474-0.319,6.796-0.506c0.334-0.027,0.673-0.013,1.01,0.002c0.587,0.024,1.28-0.03,1.195,0.865
		c-0.068,0.721-0.692,0.602-1.165,0.608c-1.599,0.02-3.203,0.079-4.797-0.005c-2.788-0.147-1.614,1.932-1.77,3.167
		c-0.151,1.204-0.415,2.642,1.75,2.364c1.408-0.18,2.857-0.015,4.289-0.037c0.657-0.01,0.92,0.315,0.888,0.913
		c-0.032,0.607-0.528,0.552-0.928,0.557c-1.431,0.015-2.866,0.075-4.292-0.012c-1.24-0.076-1.747,0.226-1.781,1.625
		c-0.101,4.126,0.138,4.355,4.738,4.158c1.033-0.044,2.926-0.948,2.982,0.4c0.07,1.648-2.024,0.589-3.068,1.051
		c-0.072,0.032-0.167,0.011-0.251,0.014c-5.51,0.185-5.997-0.287-5.997-5.802C196.273,383.185,196.273,382.259,196.273,380.94z"/>
	<path fill-rule="evenodd" clip-rule="evenodd" fill="#EFF0F1" d="M151.274,381.33c0-2.263-0.889-5.297,0.231-6.588
		c1.319-1.521,4.431-0.333,6.758-0.498c0.418-0.03,0.841,0,1.262,0c0.469,0,0.857,0.184,0.908,0.666
		c0.073,0.686-0.425,0.814-0.976,0.815c-1.263,0.002-2.545,0.147-3.783-0.028c-2.389-0.338-3.171,0.433-3.073,2.942
		c0.08,2.057,0.498,2.918,2.636,2.596c0.988-0.148,2.017-0.047,3.026-0.017c0.616,0.019,1.499-0.245,1.444,0.842
		c-0.047,0.94-0.855,0.587-1.356,0.607c-1.26,0.05-2.53,0.091-3.785-0.003c-1.331-0.1-1.909,0.195-1.913,1.737
		c-0.011,4.088,0.088,4.202,4.592,4.06c1.113-0.035,3.087-1.062,3.201,0.474c0.107,1.45-2.039,0.852-3.137,0.922
		c-5.666,0.364-6.184-0.179-6.184-5.749c0-0.926,0-1.852,0-2.778C151.174,381.33,151.224,381.33,151.274,381.33z"/>
	<path fill-rule="evenodd" clip-rule="evenodd" fill="#EFF0F1" d="M76.22,382.041c-0.001-1.599,0.19-3.227-0.044-4.79
		c-0.391-2.606,0.999-3.084,3.117-3.209c5.279-0.312,7.837,2.339,6.711,6.979c-0.675,2.781-2.816,3.626-5.139,3.475
		c-2.821-0.185-3.501,0.933-3.062,3.39c0.043,0.245,0.014,0.504,0.001,0.756c-0.024,0.485,0.061,1.025-0.681,1.088
		c-0.892,0.076-0.903-0.508-0.902-1.126C76.222,386.416,76.221,384.229,76.22,382.041z M80.139,383.112c0.388,0,0.555,0.004,0.722,0
		c3.045-0.086,3.709-0.75,3.71-3.708c0.001-2.774-1.365-3.754-4.633-3.89c-3.235-0.134-1.858,2.157-2.117,3.595
		c-0.087,0.487,0.044,1.01-0.024,1.502C77.518,382.625,78.147,383.668,80.139,383.112z"/>
</g>
<g id="Calque_8">
	<path fill-rule="evenodd" clip-rule="evenodd" fill="#EFF0F1" d="M265.415,381.918c2.104,1.003,2.999,2.611,2.364,4.893
		c-0.642,2.309-2.58,2.688-4.545,2.88c-5.421,0.533-5.424,0.51-5.424-4.898c0-2.858-0.013-5.716,0.011-8.573
		c0.005-0.552-0.218-1.173,0.315-1.64c0.873-0.764,5.704-0.705,7.141,0.135c1.682,0.982,2.021,2.532,1.815,4.344
		C266.957,380.248,266.075,380.948,265.415,381.918z M262.09,382.686c-1.459-0.027-3.289-0.468-2.696,2.071
		c0.314,1.347-1.31,3.879,2.054,3.494c1.997-0.229,4.495,0.445,4.895-2.589C266.604,383.676,265.093,382.695,262.09,382.686z
		 M261.712,381.172c2.961-0.001,3.893-0.743,3.825-2.899c-0.083-2.65-2.034-2.538-3.923-2.753c-2.6-0.296-2.138,1.388-2.274,2.953
		C259.159,380.538,259.575,381.751,261.712,381.172z"/>
	<path fill-rule="evenodd" clip-rule="evenodd" fill="#EFF0F1" d="M284.872,389.708c-0.752,0.032-1.229-0.14-1.122-0.642
		c1.09-5.091-3.399-7.888-4.863-11.921c-0.085-0.235-0.278-0.449-0.306-0.686c-0.079-0.691-1.389-1.489,0.031-2.055
		c1.144-0.456,1.089,0.749,1.411,1.312c1.123,1.968,2.174,3.977,3.271,5.959c0.819,1.481,1.682,1.51,2.509,0.004
		c1.131-2.059,2.251-4.124,3.36-6.195c0.339-0.633,0.439-1.595,1.543-1.029c1.089,0.558,0.151,1.233-0.062,1.656
		c-1.018,2.021-1.98,4.119-3.333,5.909c-1.429,1.891-2.367,3.75-1.997,6.164C285.405,388.757,285.606,389.582,284.872,389.708z"/>
</g>
<g id="Calque_9">
	<path fill-rule="evenodd" clip-rule="evenodd" fill="#EFF0F1" d="M453.921,378.294c0,3.643,0.004,6.561-0.002,9.479
		c-0.002,0.98,0.263,1.991-1.403,2.019c-1.623,0.027-1.468-0.879-1.464-1.917c0.017-3.791-0.046-7.583,0.049-11.371
		c0.021-0.805-0.791-2.209,0.942-2.356c1.326-0.112,2.533-0.187,3.293,1.473c1.292,2.821,2.891,5.502,4.386,8.229
		c0.215,0.391,0.298,0.975,1.105,1.012c0-2.908,0.012-5.791-0.006-8.674c-0.007-1.134-0.147-2.155,1.604-2.104
		c1.789,0.051,1.237,1.253,1.247,2.115c0.046,3.791,0.062,7.583-0.017,11.372c-0.015,0.739,0.722,2.064-0.849,2.135
		c-1.157,0.052-2.443,0.492-3.224-1.133c-1.418-2.95-3.064-5.791-4.624-8.673C454.774,379.557,454.538,379.242,453.921,378.294z"/>
	<path fill-rule="evenodd" clip-rule="evenodd" fill="#EFF0F1" d="M425.705,382.12c0.011-6.073,2.956-8.881,8.496-8.06
		c0.653,0.097,1.325,0.291,1.912,0.589c3.199,1.63,4.353,7.999,2.225,12.103c-1.534,2.955-6.006,4.151-9.338,2.496
		C426.737,388.124,425.699,385.877,425.705,382.12z M436.475,382.391c-0.002-4.536-1.116-5.875-4.512-5.831
		c-2.817,0.037-3.582,1.162-3.536,5.297c0.009,0.751,0.115,1.51,0.262,2.25c0.502,2.528,1.631,3.159,4.543,3.232
		c2.497,0.063,2.873-1.504,3.117-3.343C436.438,383.331,436.456,382.655,436.475,382.391z"/>
	<path fill-rule="evenodd" clip-rule="evenodd" fill="#EFF0F1" d="M324.001,389.847c-1.628,0.107-2.938-0.219-4.223-0.619
		c-0.683-0.212-1.554-0.373-1.077-1.514c0.354-0.848,0.688-1.466,1.799-0.988c1.419,0.61,2.945,0.665,4.467,0.577
		c0.799-0.046,1.773,0.156,1.845-1.133c0.056-0.987-0.089-1.912-1.111-2.302c-1.252-0.477-2.574-0.77-3.831-1.234
		c-2.169-0.8-3.189-2.363-2.904-4.704c0.289-2.357,1.755-3.575,3.981-3.87c1.493-0.198,3.021-0.231,4.499,0.252
		c1.656,0.543,2.415,2.39,1.347,3.71c-0.817,1.01-1.721,1.074-2.372-0.41c-0.642-1.462-3.465-1.661-4.342-0.348
		c-0.854,1.279-0.353,2.275,0.935,2.828c0.995,0.427,2.09,0.614,3.12,0.965c2.754,0.939,3.773,2.331,3.526,4.741
		c-0.25,2.439-1.83,3.816-4.657,4.042C324.584,389.875,324.161,389.847,324.001,389.847z"/>
	<path fill-rule="evenodd" clip-rule="evenodd" fill="#EFF0F1" d="M383.38,382.218c0-1.85,0.144-3.715-0.041-5.547
		c-0.183-1.826,0.701-2.411,2.25-2.498c1.341-0.075,2.695-0.209,4.026-0.104c3.165,0.247,4.856,1.975,5.002,4.921
		c0.164,3.317-1.336,5.223-4.593,5.841c-0.248,0.047-0.506,0.16-0.743,0.129c-2.494-0.334-3.503,0.688-3.027,3.192
		c0.214,1.127-0.203,1.631-1.482,1.633c-1.412,0.002-1.418-0.757-1.401-1.763C383.403,386.087,383.38,384.152,383.38,382.218z
		 M386.223,379.605c0.377,1.116-0.943,3.157,1.891,2.98c2.965-0.184,3.78-0.692,3.742-3.038c-0.035-2.161-1.097-2.866-3.701-3.028
		C385.383,376.347,386.504,378.307,386.223,379.605z"/>
	<path fill-rule="evenodd" clip-rule="evenodd" fill="#EFF0F1" d="M367.649,378.875c-0.586,1.465-1.1,2.965-1.785,4.382
		c-0.428,0.884-0.313,2.252-1.916,2.281c-1.603,0.028-1.54-1.284-1.967-2.194c-0.615-1.317-1.162-2.666-1.737-4.001
		c-0.256,0.047-0.511,0.095-0.766,0.142c0,2.834-0.036,5.669,0.018,8.502c0.022,1.208-0.214,1.823-1.649,1.802
		c-1.523-0.022-1.304-0.903-1.267-1.833c0.158-3.953,0.295-7.907,0.474-11.86c0.038-0.846-0.292-2.006,1.226-1.967
		c1.208,0.031,2.46-0.351,2.966,1.469c0.627,2.253,1.613,4.405,2.539,6.853c1.346-2.188,2.014-4.435,2.679-6.621
		c0.548-1.801,1.67-1.744,3.057-1.715c1.806,0.038,1.094,1.405,1.143,2.218c0.227,3.781,0.371,7.567,0.47,11.354
		c0.021,0.831,0.658,2.043-1.183,2.105c-1.808,0.061-1.578-1.081-1.59-2.119c-0.033-2.924-0.011-5.849-0.011-8.774
		C368.115,378.89,367.883,378.882,367.649,378.875z"/>
	<path fill-rule="evenodd" clip-rule="evenodd" fill="#FCFCFC" d="M408.659,380.801c0.001,0.084-0.001,0.168,0.001,0.253
		c0.052,1.926-0.568,4.313,0.348,5.647c0.906,1.323,3.439,0.346,5.254,0.452c0.891,0.052,1.387,0.184,1.367,1.251
		c-0.018,0.955-0.265,1.361-1.279,1.338c-2.359-0.052-4.721-0.052-7.079,0.001c-0.97,0.022-1.324-0.288-1.314-1.285
		c0.041-4.298,0.042-8.597-0.001-12.895c-0.012-1.084,0.326-1.475,1.445-1.453c1.045,0.02,1.285,0.469,1.269,1.379
		C408.635,377.261,408.659,379.031,408.659,380.801z"/>
	<path fill-rule="evenodd" clip-rule="evenodd" fill="#FCFCFC" d="M344.331,381.719c0,2.19-0.086,4.384,0.031,6.568
		c0.072,1.34-0.502,1.5-1.622,1.487c-1.029-0.011-1.49-0.206-1.473-1.375c0.064-4.295,0.082-8.592-0.008-12.886
		c-0.028-1.335,0.513-1.449,1.622-1.495c1.332-0.055,1.506,0.533,1.469,1.638C344.283,377.675,344.331,379.698,344.331,381.719z"/>
</g>
</svg>
